%TF.GenerationSoftware,KiCad,Pcbnew,(6.99.0-143-g3f711b8958)*%
%TF.CreationDate,2021-12-29T15:34:20+01:00*%
%TF.ProjectId,Logic_Probe,4c6f6769-635f-4507-926f-62652e6b6963,rev?*%
%TF.SameCoordinates,Original*%
%TF.FileFunction,Legend,Top*%
%TF.FilePolarity,Positive*%
%FSLAX46Y46*%
G04 Gerber Fmt 4.6, Leading zero omitted, Abs format (unit mm)*
G04 Created by KiCad (PCBNEW (6.99.0-143-g3f711b8958)) date 2021-12-29 15:34:20*
%MOMM*%
%LPD*%
G01*
G04 APERTURE LIST*
%ADD10C,0.150000*%
%ADD11C,0.120000*%
G04 APERTURE END LIST*
D10*
X205142857Y-95154880D02*
X205142857Y-94154880D01*
X205523809Y-94154880D01*
X205619047Y-94202500D01*
X205666666Y-94250119D01*
X205714285Y-94345357D01*
X205714285Y-94488214D01*
X205666666Y-94583452D01*
X205619047Y-94631071D01*
X205523809Y-94678690D01*
X205142857Y-94678690D01*
X206142857Y-94154880D02*
X206142857Y-94964404D01*
X206190476Y-95059642D01*
X206238095Y-95107261D01*
X206333333Y-95154880D01*
X206523809Y-95154880D01*
X206619047Y-95107261D01*
X206666666Y-95059642D01*
X206714285Y-94964404D01*
X206714285Y-94154880D01*
X207666666Y-95154880D02*
X207190476Y-95154880D01*
X207190476Y-94154880D01*
X207952380Y-95107261D02*
X208095238Y-95154880D01*
X208333333Y-95154880D01*
X208428571Y-95107261D01*
X208476190Y-95059642D01*
X208523809Y-94964404D01*
X208523809Y-94869166D01*
X208476190Y-94773928D01*
X208428571Y-94726309D01*
X208333333Y-94678690D01*
X208142857Y-94631071D01*
X208047619Y-94583452D01*
X208000000Y-94535833D01*
X207952380Y-94440595D01*
X207952380Y-94345357D01*
X208000000Y-94250119D01*
X208047619Y-94202500D01*
X208142857Y-94154880D01*
X208380952Y-94154880D01*
X208523809Y-94202500D01*
X208952380Y-94631071D02*
X209285714Y-94631071D01*
X209428571Y-95154880D02*
X208952380Y-95154880D01*
X208952380Y-94154880D01*
X209428571Y-94154880D01*
X212142857Y-95154880D02*
X212142857Y-94154880D01*
X212476190Y-94869166D01*
X212809523Y-94154880D01*
X212809523Y-95154880D01*
X213285714Y-94631071D02*
X213619047Y-94631071D01*
X213761904Y-95154880D02*
X213285714Y-95154880D01*
X213285714Y-94154880D01*
X213761904Y-94154880D01*
X214190476Y-95154880D02*
X214190476Y-94154880D01*
X214523809Y-94869166D01*
X214857142Y-94154880D01*
X214857142Y-95154880D01*
X206047619Y-67357142D02*
X206000000Y-67404761D01*
X205857142Y-67452380D01*
X205761904Y-67452380D01*
X205619047Y-67404761D01*
X205523809Y-67309523D01*
X205476190Y-67214285D01*
X205428571Y-67023809D01*
X205428571Y-66880952D01*
X205476190Y-66690476D01*
X205523809Y-66595238D01*
X205619047Y-66500000D01*
X205761904Y-66452380D01*
X205857142Y-66452380D01*
X206000000Y-66500000D01*
X206047619Y-66547619D01*
X206476190Y-67452380D02*
X206476190Y-66452380D01*
X206809523Y-67166666D01*
X207142857Y-66452380D01*
X207142857Y-67452380D01*
X207809523Y-66452380D02*
X208000000Y-66452380D01*
X208095238Y-66500000D01*
X208190476Y-66595238D01*
X208238095Y-66785714D01*
X208238095Y-67119047D01*
X208190476Y-67309523D01*
X208095238Y-67404761D01*
X208000000Y-67452380D01*
X207809523Y-67452380D01*
X207714285Y-67404761D01*
X207619047Y-67309523D01*
X207571428Y-67119047D01*
X207571428Y-66785714D01*
X207619047Y-66595238D01*
X207714285Y-66500000D01*
X207809523Y-66452380D01*
X208619047Y-67404761D02*
X208761904Y-67452380D01*
X209000000Y-67452380D01*
X209095238Y-67404761D01*
X209142857Y-67357142D01*
X209190476Y-67261904D01*
X209190476Y-67166666D01*
X209142857Y-67071428D01*
X209095238Y-67023809D01*
X209000000Y-66976190D01*
X208809523Y-66928571D01*
X208714285Y-66880952D01*
X208666666Y-66833333D01*
X208619047Y-66738095D01*
X208619047Y-66642857D01*
X208666666Y-66547619D01*
X208714285Y-66500000D01*
X208809523Y-66452380D01*
X209047619Y-66452380D01*
X209190476Y-66500000D01*
X212523809Y-66452380D02*
X213095238Y-66452380D01*
X212809523Y-67452380D02*
X212809523Y-66452380D01*
X213285714Y-66452380D02*
X213857142Y-66452380D01*
X213571428Y-67452380D02*
X213571428Y-66452380D01*
X214666666Y-67452380D02*
X214190476Y-67452380D01*
X214190476Y-66452380D01*
X242166666Y-84552142D02*
X242119047Y-84599761D01*
X241976190Y-84647380D01*
X241880952Y-84647380D01*
X241738095Y-84599761D01*
X241642857Y-84504523D01*
X241595238Y-84409285D01*
X241547619Y-84218809D01*
X241547619Y-84075952D01*
X241595238Y-83885476D01*
X241642857Y-83790238D01*
X241738095Y-83695000D01*
X241880952Y-83647380D01*
X241976190Y-83647380D01*
X242119047Y-83695000D01*
X242166666Y-83742619D01*
X243071428Y-84647380D02*
X242595238Y-84647380D01*
X242595238Y-83647380D01*
X243404761Y-84647380D02*
X243404761Y-83647380D01*
X243880952Y-84647380D02*
X243880952Y-83647380D01*
X244261904Y-83647380D01*
X244357142Y-83695000D01*
X244404761Y-83742619D01*
X244452380Y-83837857D01*
X244452380Y-83980714D01*
X244404761Y-84075952D01*
X244357142Y-84123571D01*
X244261904Y-84171190D01*
X243880952Y-84171190D01*
X243000000Y-85876428D02*
X243761904Y-85876428D01*
X242166666Y-77552142D02*
X242119047Y-77599761D01*
X241976190Y-77647380D01*
X241880952Y-77647380D01*
X241738095Y-77599761D01*
X241642857Y-77504523D01*
X241595238Y-77409285D01*
X241547619Y-77218809D01*
X241547619Y-77075952D01*
X241595238Y-76885476D01*
X241642857Y-76790238D01*
X241738095Y-76695000D01*
X241880952Y-76647380D01*
X241976190Y-76647380D01*
X242119047Y-76695000D01*
X242166666Y-76742619D01*
X243071428Y-77647380D02*
X242595238Y-77647380D01*
X242595238Y-76647380D01*
X243404761Y-77647380D02*
X243404761Y-76647380D01*
X243880952Y-77647380D02*
X243880952Y-76647380D01*
X244261904Y-76647380D01*
X244357142Y-76695000D01*
X244404761Y-76742619D01*
X244452380Y-76837857D01*
X244452380Y-76980714D01*
X244404761Y-77075952D01*
X244357142Y-77123571D01*
X244261904Y-77171190D01*
X243880952Y-77171190D01*
X243000000Y-78876428D02*
X243761904Y-78876428D01*
X243380952Y-79257380D02*
X243380952Y-78495476D01*
X172861904Y-86152380D02*
X172861904Y-85152380D01*
X173242857Y-85152380D01*
X173338095Y-85200000D01*
X173385714Y-85247619D01*
X173433333Y-85342857D01*
X173433333Y-85485714D01*
X173385714Y-85580952D01*
X173338095Y-85628571D01*
X173242857Y-85676190D01*
X172861904Y-85676190D01*
X174433333Y-86152380D02*
X174100000Y-85676190D01*
X173861904Y-86152380D02*
X173861904Y-85152380D01*
X174242857Y-85152380D01*
X174338095Y-85200000D01*
X174385714Y-85247619D01*
X174433333Y-85342857D01*
X174433333Y-85485714D01*
X174385714Y-85580952D01*
X174338095Y-85628571D01*
X174242857Y-85676190D01*
X173861904Y-85676190D01*
X175052380Y-85152380D02*
X175242857Y-85152380D01*
X175338095Y-85200000D01*
X175433333Y-85295238D01*
X175480952Y-85485714D01*
X175480952Y-85819047D01*
X175433333Y-86009523D01*
X175338095Y-86104761D01*
X175242857Y-86152380D01*
X175052380Y-86152380D01*
X174957142Y-86104761D01*
X174861904Y-86009523D01*
X174814285Y-85819047D01*
X174814285Y-85485714D01*
X174861904Y-85295238D01*
X174957142Y-85200000D01*
X175052380Y-85152380D01*
X176242857Y-85628571D02*
X176385714Y-85676190D01*
X176433333Y-85723809D01*
X176480952Y-85819047D01*
X176480952Y-85961904D01*
X176433333Y-86057142D01*
X176385714Y-86104761D01*
X176290476Y-86152380D01*
X175909523Y-86152380D01*
X175909523Y-85152380D01*
X176242857Y-85152380D01*
X176338095Y-85200000D01*
X176385714Y-85247619D01*
X176433333Y-85342857D01*
X176433333Y-85438095D01*
X176385714Y-85533333D01*
X176338095Y-85580952D01*
X176242857Y-85628571D01*
X175909523Y-85628571D01*
X176909523Y-85628571D02*
X177242857Y-85628571D01*
X177385714Y-86152380D02*
X176909523Y-86152380D01*
X176909523Y-85152380D01*
X177385714Y-85152380D01*
X247452380Y-78523809D02*
X248452380Y-78190476D01*
X247452380Y-77857142D01*
X248452380Y-77000000D02*
X248452380Y-77571428D01*
X248452380Y-77285714D02*
X247452380Y-77285714D01*
X247595238Y-77380952D01*
X247690476Y-77476190D01*
X247738095Y-77571428D01*
X248357142Y-76571428D02*
X248404761Y-76523809D01*
X248452380Y-76571428D01*
X248404761Y-76619047D01*
X248357142Y-76571428D01*
X248452380Y-76571428D01*
X247452380Y-75904761D02*
X247452380Y-75809523D01*
X247500000Y-75714285D01*
X247547619Y-75666666D01*
X247642857Y-75619047D01*
X247833333Y-75571428D01*
X248071428Y-75571428D01*
X248261904Y-75619047D01*
X248357142Y-75666666D01*
X248404761Y-75714285D01*
X248452380Y-75809523D01*
X248452380Y-75904761D01*
X248404761Y-76000000D01*
X248357142Y-76047619D01*
X248261904Y-76095238D01*
X248071428Y-76142857D01*
X247833333Y-76142857D01*
X247642857Y-76095238D01*
X247547619Y-76047619D01*
X247500000Y-76000000D01*
X247452380Y-75904761D01*
X246452380Y-86309523D02*
X246452380Y-86785714D01*
X245452380Y-86785714D01*
X245452380Y-85785714D02*
X245452380Y-85595238D01*
X245500000Y-85500000D01*
X245595238Y-85404761D01*
X245785714Y-85357142D01*
X246119047Y-85357142D01*
X246309523Y-85404761D01*
X246404761Y-85500000D01*
X246452380Y-85595238D01*
X246452380Y-85785714D01*
X246404761Y-85880952D01*
X246309523Y-85976190D01*
X246119047Y-86023809D01*
X245785714Y-86023809D01*
X245595238Y-85976190D01*
X245500000Y-85880952D01*
X245452380Y-85785714D01*
X245500000Y-84404761D02*
X245452380Y-84500000D01*
X245452380Y-84642857D01*
X245500000Y-84785714D01*
X245595238Y-84880952D01*
X245690476Y-84928571D01*
X245880952Y-84976190D01*
X246023809Y-84976190D01*
X246214285Y-84928571D01*
X246309523Y-84880952D01*
X246404761Y-84785714D01*
X246452380Y-84642857D01*
X246452380Y-84547619D01*
X246404761Y-84404761D01*
X246357142Y-84357142D01*
X246023809Y-84357142D01*
X246023809Y-84547619D01*
X246452380Y-83928571D02*
X245452380Y-83928571D01*
X246357142Y-82880952D02*
X246404761Y-82928571D01*
X246452380Y-83071428D01*
X246452380Y-83166666D01*
X246404761Y-83309523D01*
X246309523Y-83404761D01*
X246214285Y-83452380D01*
X246023809Y-83500000D01*
X245880952Y-83500000D01*
X245690476Y-83452380D01*
X245595238Y-83404761D01*
X245500000Y-83309523D01*
X245452380Y-83166666D01*
X245452380Y-83071428D01*
X245500000Y-82928571D01*
X245547619Y-82880952D01*
X246452380Y-81690476D02*
X245452380Y-81690476D01*
X245452380Y-81309523D01*
X245500000Y-81214285D01*
X245547619Y-81166666D01*
X245642857Y-81119047D01*
X245785714Y-81119047D01*
X245880952Y-81166666D01*
X245928571Y-81214285D01*
X245976190Y-81309523D01*
X245976190Y-81690476D01*
X246452380Y-80119047D02*
X245976190Y-80452380D01*
X246452380Y-80690476D02*
X245452380Y-80690476D01*
X245452380Y-80309523D01*
X245500000Y-80214285D01*
X245547619Y-80166666D01*
X245642857Y-80119047D01*
X245785714Y-80119047D01*
X245880952Y-80166666D01*
X245928571Y-80214285D01*
X245976190Y-80309523D01*
X245976190Y-80690476D01*
X245452380Y-79500000D02*
X245452380Y-79309523D01*
X245500000Y-79214285D01*
X245595238Y-79119047D01*
X245785714Y-79071428D01*
X246119047Y-79071428D01*
X246309523Y-79119047D01*
X246404761Y-79214285D01*
X246452380Y-79309523D01*
X246452380Y-79500000D01*
X246404761Y-79595238D01*
X246309523Y-79690476D01*
X246119047Y-79738095D01*
X245785714Y-79738095D01*
X245595238Y-79690476D01*
X245500000Y-79595238D01*
X245452380Y-79500000D01*
X245928571Y-78309523D02*
X245976190Y-78166666D01*
X246023809Y-78119047D01*
X246119047Y-78071428D01*
X246261904Y-78071428D01*
X246357142Y-78119047D01*
X246404761Y-78166666D01*
X246452380Y-78261904D01*
X246452380Y-78642857D01*
X245452380Y-78642857D01*
X245452380Y-78309523D01*
X245500000Y-78214285D01*
X245547619Y-78166666D01*
X245642857Y-78119047D01*
X245738095Y-78119047D01*
X245833333Y-78166666D01*
X245880952Y-78214285D01*
X245928571Y-78309523D01*
X245928571Y-78642857D01*
X245928571Y-77642857D02*
X245928571Y-77309523D01*
X246452380Y-77166666D02*
X246452380Y-77642857D01*
X245452380Y-77642857D01*
X245452380Y-77166666D01*
%TO.C,H3*%
X246238095Y-67552380D02*
X246238095Y-66552380D01*
X246238095Y-67028571D02*
X246809523Y-67028571D01*
X246809523Y-67552380D02*
X246809523Y-66552380D01*
X247190476Y-66552380D02*
X247809523Y-66552380D01*
X247476190Y-66933333D01*
X247619047Y-66933333D01*
X247714285Y-66980952D01*
X247761904Y-67028571D01*
X247809523Y-67123809D01*
X247809523Y-67361904D01*
X247761904Y-67457142D01*
X247714285Y-67504761D01*
X247619047Y-67552380D01*
X247333333Y-67552380D01*
X247238095Y-67504761D01*
X247190476Y-67457142D01*
%TO.C,J3*%
X234966666Y-66752380D02*
X234966666Y-67466666D01*
X234919047Y-67609523D01*
X234823809Y-67704761D01*
X234680952Y-67752380D01*
X234585714Y-67752380D01*
X235347619Y-66752380D02*
X235966666Y-66752380D01*
X235633333Y-67133333D01*
X235776190Y-67133333D01*
X235871428Y-67180952D01*
X235919047Y-67228571D01*
X235966666Y-67323809D01*
X235966666Y-67561904D01*
X235919047Y-67657142D01*
X235871428Y-67704761D01*
X235776190Y-67752380D01*
X235490476Y-67752380D01*
X235395238Y-67704761D01*
X235347619Y-67657142D01*
%TO.C,D1*%
X194711904Y-74902380D02*
X194711904Y-73902380D01*
X194950000Y-73902380D01*
X195092857Y-73950000D01*
X195188095Y-74045238D01*
X195235714Y-74140476D01*
X195283333Y-74330952D01*
X195283333Y-74473809D01*
X195235714Y-74664285D01*
X195188095Y-74759523D01*
X195092857Y-74854761D01*
X194950000Y-74902380D01*
X194711904Y-74902380D01*
X196235714Y-74902380D02*
X195664285Y-74902380D01*
X195950000Y-74902380D02*
X195950000Y-73902380D01*
X195854761Y-74045238D01*
X195759523Y-74140476D01*
X195664285Y-74188095D01*
%TO.C,H4*%
X246238095Y-89552380D02*
X246238095Y-88552380D01*
X246238095Y-89028571D02*
X246809523Y-89028571D01*
X246809523Y-89552380D02*
X246809523Y-88552380D01*
X247714285Y-88885714D02*
X247714285Y-89552380D01*
X247476190Y-88504761D02*
X247238095Y-89219047D01*
X247857142Y-89219047D01*
%TO.C,R19*%
X203557142Y-74952380D02*
X203223809Y-74476190D01*
X202985714Y-74952380D02*
X202985714Y-73952380D01*
X203366666Y-73952380D01*
X203461904Y-74000000D01*
X203509523Y-74047619D01*
X203557142Y-74142857D01*
X203557142Y-74285714D01*
X203509523Y-74380952D01*
X203461904Y-74428571D01*
X203366666Y-74476190D01*
X202985714Y-74476190D01*
X204509523Y-74952380D02*
X203938095Y-74952380D01*
X204223809Y-74952380D02*
X204223809Y-73952380D01*
X204128571Y-74095238D01*
X204033333Y-74190476D01*
X203938095Y-74238095D01*
X204985714Y-74952380D02*
X205176190Y-74952380D01*
X205271428Y-74904761D01*
X205319047Y-74857142D01*
X205414285Y-74714285D01*
X205461904Y-74523809D01*
X205461904Y-74142857D01*
X205414285Y-74047619D01*
X205366666Y-74000000D01*
X205271428Y-73952380D01*
X205080952Y-73952380D01*
X204985714Y-74000000D01*
X204938095Y-74047619D01*
X204890476Y-74142857D01*
X204890476Y-74380952D01*
X204938095Y-74476190D01*
X204985714Y-74523809D01*
X205080952Y-74571428D01*
X205271428Y-74571428D01*
X205366666Y-74523809D01*
X205414285Y-74476190D01*
X205461904Y-74380952D01*
%TO.C,R10*%
X183444642Y-92539880D02*
X183111309Y-92063690D01*
X182873214Y-92539880D02*
X182873214Y-91539880D01*
X183254166Y-91539880D01*
X183349404Y-91587500D01*
X183397023Y-91635119D01*
X183444642Y-91730357D01*
X183444642Y-91873214D01*
X183397023Y-91968452D01*
X183349404Y-92016071D01*
X183254166Y-92063690D01*
X182873214Y-92063690D01*
X184397023Y-92539880D02*
X183825595Y-92539880D01*
X184111309Y-92539880D02*
X184111309Y-91539880D01*
X184016071Y-91682738D01*
X183920833Y-91777976D01*
X183825595Y-91825595D01*
X185016071Y-91539880D02*
X185111309Y-91539880D01*
X185206547Y-91587500D01*
X185254166Y-91635119D01*
X185301785Y-91730357D01*
X185349404Y-91920833D01*
X185349404Y-92158928D01*
X185301785Y-92349404D01*
X185254166Y-92444642D01*
X185206547Y-92492261D01*
X185111309Y-92539880D01*
X185016071Y-92539880D01*
X184920833Y-92492261D01*
X184873214Y-92444642D01*
X184825595Y-92349404D01*
X184777976Y-92158928D01*
X184777976Y-91920833D01*
X184825595Y-91730357D01*
X184873214Y-91635119D01*
X184920833Y-91587500D01*
X185016071Y-91539880D01*
%TO.C,Q5*%
X200174761Y-89987619D02*
X200079523Y-89940000D01*
X199984285Y-89844761D01*
X199841428Y-89701904D01*
X199746190Y-89654285D01*
X199650952Y-89654285D01*
X199698571Y-89892380D02*
X199603333Y-89844761D01*
X199508095Y-89749523D01*
X199460476Y-89559047D01*
X199460476Y-89225714D01*
X199508095Y-89035238D01*
X199603333Y-88940000D01*
X199698571Y-88892380D01*
X199889047Y-88892380D01*
X199984285Y-88940000D01*
X200079523Y-89035238D01*
X200127142Y-89225714D01*
X200127142Y-89559047D01*
X200079523Y-89749523D01*
X199984285Y-89844761D01*
X199889047Y-89892380D01*
X199698571Y-89892380D01*
X201031904Y-88892380D02*
X200555714Y-88892380D01*
X200508095Y-89368571D01*
X200555714Y-89320952D01*
X200650952Y-89273333D01*
X200889047Y-89273333D01*
X200984285Y-89320952D01*
X201031904Y-89368571D01*
X201079523Y-89463809D01*
X201079523Y-89701904D01*
X201031904Y-89797142D01*
X200984285Y-89844761D01*
X200889047Y-89892380D01*
X200650952Y-89892380D01*
X200555714Y-89844761D01*
X200508095Y-89797142D01*
%TO.C,C5*%
X221397142Y-77476666D02*
X221444761Y-77524285D01*
X221492380Y-77667142D01*
X221492380Y-77762380D01*
X221444761Y-77905238D01*
X221349523Y-78000476D01*
X221254285Y-78048095D01*
X221063809Y-78095714D01*
X220920952Y-78095714D01*
X220730476Y-78048095D01*
X220635238Y-78000476D01*
X220540000Y-77905238D01*
X220492380Y-77762380D01*
X220492380Y-77667142D01*
X220540000Y-77524285D01*
X220587619Y-77476666D01*
X220492380Y-76571904D02*
X220492380Y-77048095D01*
X220968571Y-77095714D01*
X220920952Y-77048095D01*
X220873333Y-76952857D01*
X220873333Y-76714761D01*
X220920952Y-76619523D01*
X220968571Y-76571904D01*
X221063809Y-76524285D01*
X221301904Y-76524285D01*
X221397142Y-76571904D01*
X221444761Y-76619523D01*
X221492380Y-76714761D01*
X221492380Y-76952857D01*
X221444761Y-77048095D01*
X221397142Y-77095714D01*
%TO.C,D5*%
X224472380Y-87268095D02*
X223472380Y-87268095D01*
X223472380Y-87030000D01*
X223520000Y-86887142D01*
X223615238Y-86791904D01*
X223710476Y-86744285D01*
X223900952Y-86696666D01*
X224043809Y-86696666D01*
X224234285Y-86744285D01*
X224329523Y-86791904D01*
X224424761Y-86887142D01*
X224472380Y-87030000D01*
X224472380Y-87268095D01*
X223472380Y-85791904D02*
X223472380Y-86268095D01*
X223948571Y-86315714D01*
X223900952Y-86268095D01*
X223853333Y-86172857D01*
X223853333Y-85934761D01*
X223900952Y-85839523D01*
X223948571Y-85791904D01*
X224043809Y-85744285D01*
X224281904Y-85744285D01*
X224377142Y-85791904D01*
X224424761Y-85839523D01*
X224472380Y-85934761D01*
X224472380Y-86172857D01*
X224424761Y-86268095D01*
X224377142Y-86315714D01*
%TO.C,R7*%
X181852380Y-83066666D02*
X181376190Y-83400000D01*
X181852380Y-83638095D02*
X180852380Y-83638095D01*
X180852380Y-83257142D01*
X180900000Y-83161904D01*
X180947619Y-83114285D01*
X181042857Y-83066666D01*
X181185714Y-83066666D01*
X181280952Y-83114285D01*
X181328571Y-83161904D01*
X181376190Y-83257142D01*
X181376190Y-83638095D01*
X180852380Y-82733333D02*
X180852380Y-82066666D01*
X181852380Y-82495238D01*
%TO.C,Q1*%
X238897619Y-83445238D02*
X238850000Y-83540476D01*
X238754761Y-83635714D01*
X238611904Y-83778571D01*
X238564285Y-83873809D01*
X238564285Y-83969047D01*
X238802380Y-83921428D02*
X238754761Y-84016666D01*
X238659523Y-84111904D01*
X238469047Y-84159523D01*
X238135714Y-84159523D01*
X237945238Y-84111904D01*
X237850000Y-84016666D01*
X237802380Y-83921428D01*
X237802380Y-83730952D01*
X237850000Y-83635714D01*
X237945238Y-83540476D01*
X238135714Y-83492857D01*
X238469047Y-83492857D01*
X238659523Y-83540476D01*
X238754761Y-83635714D01*
X238802380Y-83730952D01*
X238802380Y-83921428D01*
X238802380Y-82540476D02*
X238802380Y-83111904D01*
X238802380Y-82826190D02*
X237802380Y-82826190D01*
X237945238Y-82921428D01*
X238040476Y-83016666D01*
X238088095Y-83111904D01*
%TO.C,H1*%
X174238095Y-67552380D02*
X174238095Y-66552380D01*
X174238095Y-67028571D02*
X174809523Y-67028571D01*
X174809523Y-67552380D02*
X174809523Y-66552380D01*
X175809523Y-67552380D02*
X175238095Y-67552380D01*
X175523809Y-67552380D02*
X175523809Y-66552380D01*
X175428571Y-66695238D01*
X175333333Y-66790476D01*
X175238095Y-66838095D01*
%TO.C,C6*%
X202033333Y-79907142D02*
X201985714Y-79954761D01*
X201842857Y-80002380D01*
X201747619Y-80002380D01*
X201604761Y-79954761D01*
X201509523Y-79859523D01*
X201461904Y-79764285D01*
X201414285Y-79573809D01*
X201414285Y-79430952D01*
X201461904Y-79240476D01*
X201509523Y-79145238D01*
X201604761Y-79050000D01*
X201747619Y-79002380D01*
X201842857Y-79002380D01*
X201985714Y-79050000D01*
X202033333Y-79097619D01*
X202890476Y-79002380D02*
X202700000Y-79002380D01*
X202604761Y-79050000D01*
X202557142Y-79097619D01*
X202461904Y-79240476D01*
X202414285Y-79430952D01*
X202414285Y-79811904D01*
X202461904Y-79907142D01*
X202509523Y-79954761D01*
X202604761Y-80002380D01*
X202795238Y-80002380D01*
X202890476Y-79954761D01*
X202938095Y-79907142D01*
X202985714Y-79811904D01*
X202985714Y-79573809D01*
X202938095Y-79478571D01*
X202890476Y-79430952D01*
X202795238Y-79383333D01*
X202604761Y-79383333D01*
X202509523Y-79430952D01*
X202461904Y-79478571D01*
X202414285Y-79573809D01*
%TO.C,R24*%
X234957142Y-83752380D02*
X234623809Y-83276190D01*
X234385714Y-83752380D02*
X234385714Y-82752380D01*
X234766666Y-82752380D01*
X234861904Y-82800000D01*
X234909523Y-82847619D01*
X234957142Y-82942857D01*
X234957142Y-83085714D01*
X234909523Y-83180952D01*
X234861904Y-83228571D01*
X234766666Y-83276190D01*
X234385714Y-83276190D01*
X235338095Y-82847619D02*
X235385714Y-82800000D01*
X235480952Y-82752380D01*
X235719047Y-82752380D01*
X235814285Y-82800000D01*
X235861904Y-82847619D01*
X235909523Y-82942857D01*
X235909523Y-83038095D01*
X235861904Y-83180952D01*
X235290476Y-83752380D01*
X235909523Y-83752380D01*
X236766666Y-83085714D02*
X236766666Y-83752380D01*
X236528571Y-82704761D02*
X236290476Y-83419047D01*
X236909523Y-83419047D01*
%TO.C,R17*%
X209102380Y-85642857D02*
X208626190Y-85976190D01*
X209102380Y-86214285D02*
X208102380Y-86214285D01*
X208102380Y-85833333D01*
X208150000Y-85738095D01*
X208197619Y-85690476D01*
X208292857Y-85642857D01*
X208435714Y-85642857D01*
X208530952Y-85690476D01*
X208578571Y-85738095D01*
X208626190Y-85833333D01*
X208626190Y-86214285D01*
X209102380Y-84690476D02*
X209102380Y-85261904D01*
X209102380Y-84976190D02*
X208102380Y-84976190D01*
X208245238Y-85071428D01*
X208340476Y-85166666D01*
X208388095Y-85261904D01*
X208102380Y-84357142D02*
X208102380Y-83690476D01*
X209102380Y-84119047D01*
%TO.C,R18*%
X219852380Y-86492857D02*
X219376190Y-86826190D01*
X219852380Y-87064285D02*
X218852380Y-87064285D01*
X218852380Y-86683333D01*
X218900000Y-86588095D01*
X218947619Y-86540476D01*
X219042857Y-86492857D01*
X219185714Y-86492857D01*
X219280952Y-86540476D01*
X219328571Y-86588095D01*
X219376190Y-86683333D01*
X219376190Y-87064285D01*
X219852380Y-85540476D02*
X219852380Y-86111904D01*
X219852380Y-85826190D02*
X218852380Y-85826190D01*
X218995238Y-85921428D01*
X219090476Y-86016666D01*
X219138095Y-86111904D01*
X219280952Y-84969047D02*
X219233333Y-85064285D01*
X219185714Y-85111904D01*
X219090476Y-85159523D01*
X219042857Y-85159523D01*
X218947619Y-85111904D01*
X218900000Y-85064285D01*
X218852380Y-84969047D01*
X218852380Y-84778571D01*
X218900000Y-84683333D01*
X218947619Y-84635714D01*
X219042857Y-84588095D01*
X219090476Y-84588095D01*
X219185714Y-84635714D01*
X219233333Y-84683333D01*
X219280952Y-84778571D01*
X219280952Y-84969047D01*
X219328571Y-85064285D01*
X219376190Y-85111904D01*
X219471428Y-85159523D01*
X219661904Y-85159523D01*
X219757142Y-85111904D01*
X219804761Y-85064285D01*
X219852380Y-84969047D01*
X219852380Y-84778571D01*
X219804761Y-84683333D01*
X219757142Y-84635714D01*
X219661904Y-84588095D01*
X219471428Y-84588095D01*
X219376190Y-84635714D01*
X219328571Y-84683333D01*
X219280952Y-84778571D01*
%TO.C,R8*%
X215462380Y-72446666D02*
X214986190Y-72780000D01*
X215462380Y-73018095D02*
X214462380Y-73018095D01*
X214462380Y-72637142D01*
X214510000Y-72541904D01*
X214557619Y-72494285D01*
X214652857Y-72446666D01*
X214795714Y-72446666D01*
X214890952Y-72494285D01*
X214938571Y-72541904D01*
X214986190Y-72637142D01*
X214986190Y-73018095D01*
X214890952Y-71875238D02*
X214843333Y-71970476D01*
X214795714Y-72018095D01*
X214700476Y-72065714D01*
X214652857Y-72065714D01*
X214557619Y-72018095D01*
X214510000Y-71970476D01*
X214462380Y-71875238D01*
X214462380Y-71684761D01*
X214510000Y-71589523D01*
X214557619Y-71541904D01*
X214652857Y-71494285D01*
X214700476Y-71494285D01*
X214795714Y-71541904D01*
X214843333Y-71589523D01*
X214890952Y-71684761D01*
X214890952Y-71875238D01*
X214938571Y-71970476D01*
X214986190Y-72018095D01*
X215081428Y-72065714D01*
X215271904Y-72065714D01*
X215367142Y-72018095D01*
X215414761Y-71970476D01*
X215462380Y-71875238D01*
X215462380Y-71684761D01*
X215414761Y-71589523D01*
X215367142Y-71541904D01*
X215271904Y-71494285D01*
X215081428Y-71494285D01*
X214986190Y-71541904D01*
X214938571Y-71589523D01*
X214890952Y-71684761D01*
%TO.C,R20*%
X200832380Y-70552857D02*
X200356190Y-70886190D01*
X200832380Y-71124285D02*
X199832380Y-71124285D01*
X199832380Y-70743333D01*
X199880000Y-70648095D01*
X199927619Y-70600476D01*
X200022857Y-70552857D01*
X200165714Y-70552857D01*
X200260952Y-70600476D01*
X200308571Y-70648095D01*
X200356190Y-70743333D01*
X200356190Y-71124285D01*
X199927619Y-70171904D02*
X199880000Y-70124285D01*
X199832380Y-70029047D01*
X199832380Y-69790952D01*
X199880000Y-69695714D01*
X199927619Y-69648095D01*
X200022857Y-69600476D01*
X200118095Y-69600476D01*
X200260952Y-69648095D01*
X200832380Y-70219523D01*
X200832380Y-69600476D01*
X199832380Y-68981428D02*
X199832380Y-68886190D01*
X199880000Y-68790952D01*
X199927619Y-68743333D01*
X200022857Y-68695714D01*
X200213333Y-68648095D01*
X200451428Y-68648095D01*
X200641904Y-68695714D01*
X200737142Y-68743333D01*
X200784761Y-68790952D01*
X200832380Y-68886190D01*
X200832380Y-68981428D01*
X200784761Y-69076666D01*
X200737142Y-69124285D01*
X200641904Y-69171904D01*
X200451428Y-69219523D01*
X200213333Y-69219523D01*
X200022857Y-69171904D01*
X199927619Y-69124285D01*
X199880000Y-69076666D01*
X199832380Y-68981428D01*
%TO.C,C7*%
X227677142Y-88166666D02*
X227724761Y-88214285D01*
X227772380Y-88357142D01*
X227772380Y-88452380D01*
X227724761Y-88595238D01*
X227629523Y-88690476D01*
X227534285Y-88738095D01*
X227343809Y-88785714D01*
X227200952Y-88785714D01*
X227010476Y-88738095D01*
X226915238Y-88690476D01*
X226820000Y-88595238D01*
X226772380Y-88452380D01*
X226772380Y-88357142D01*
X226820000Y-88214285D01*
X226867619Y-88166666D01*
X226772380Y-87833333D02*
X226772380Y-87166666D01*
X227772380Y-87595238D01*
%TO.C,SW2*%
X210656666Y-88414761D02*
X210799523Y-88462380D01*
X211037619Y-88462380D01*
X211132857Y-88414761D01*
X211180476Y-88367142D01*
X211228095Y-88271904D01*
X211228095Y-88176666D01*
X211180476Y-88081428D01*
X211132857Y-88033809D01*
X211037619Y-87986190D01*
X210847142Y-87938571D01*
X210751904Y-87890952D01*
X210704285Y-87843333D01*
X210656666Y-87748095D01*
X210656666Y-87652857D01*
X210704285Y-87557619D01*
X210751904Y-87510000D01*
X210847142Y-87462380D01*
X211085238Y-87462380D01*
X211228095Y-87510000D01*
X211561428Y-87462380D02*
X211799523Y-88462380D01*
X211990000Y-87748095D01*
X212180476Y-88462380D01*
X212418571Y-87462380D01*
X212751904Y-87557619D02*
X212799523Y-87510000D01*
X212894761Y-87462380D01*
X213132857Y-87462380D01*
X213228095Y-87510000D01*
X213275714Y-87557619D01*
X213323333Y-87652857D01*
X213323333Y-87748095D01*
X213275714Y-87890952D01*
X212704285Y-88462380D01*
X213323333Y-88462380D01*
%TO.C,J1*%
X175866666Y-72952380D02*
X175866666Y-73666666D01*
X175819047Y-73809523D01*
X175723809Y-73904761D01*
X175580952Y-73952380D01*
X175485714Y-73952380D01*
X176866666Y-73952380D02*
X176295238Y-73952380D01*
X176580952Y-73952380D02*
X176580952Y-72952380D01*
X176485714Y-73095238D01*
X176390476Y-73190476D01*
X176295238Y-73238095D01*
%TO.C,C4*%
X218553333Y-79437142D02*
X218505714Y-79484761D01*
X218362857Y-79532380D01*
X218267619Y-79532380D01*
X218124761Y-79484761D01*
X218029523Y-79389523D01*
X217981904Y-79294285D01*
X217934285Y-79103809D01*
X217934285Y-78960952D01*
X217981904Y-78770476D01*
X218029523Y-78675238D01*
X218124761Y-78580000D01*
X218267619Y-78532380D01*
X218362857Y-78532380D01*
X218505714Y-78580000D01*
X218553333Y-78627619D01*
X219410476Y-78865714D02*
X219410476Y-79532380D01*
X219172380Y-78484761D02*
X218934285Y-79199047D01*
X219553333Y-79199047D01*
%TO.C,C1*%
X227833333Y-73677142D02*
X227785714Y-73724761D01*
X227642857Y-73772380D01*
X227547619Y-73772380D01*
X227404761Y-73724761D01*
X227309523Y-73629523D01*
X227261904Y-73534285D01*
X227214285Y-73343809D01*
X227214285Y-73200952D01*
X227261904Y-73010476D01*
X227309523Y-72915238D01*
X227404761Y-72820000D01*
X227547619Y-72772380D01*
X227642857Y-72772380D01*
X227785714Y-72820000D01*
X227833333Y-72867619D01*
X228785714Y-73772380D02*
X228214285Y-73772380D01*
X228500000Y-73772380D02*
X228500000Y-72772380D01*
X228404761Y-72915238D01*
X228309523Y-73010476D01*
X228214285Y-73058095D01*
%TO.C,R2*%
X231833333Y-89252380D02*
X231500000Y-88776190D01*
X231261904Y-89252380D02*
X231261904Y-88252380D01*
X231642857Y-88252380D01*
X231738095Y-88300000D01*
X231785714Y-88347619D01*
X231833333Y-88442857D01*
X231833333Y-88585714D01*
X231785714Y-88680952D01*
X231738095Y-88728571D01*
X231642857Y-88776190D01*
X231261904Y-88776190D01*
X232214285Y-88347619D02*
X232261904Y-88300000D01*
X232357142Y-88252380D01*
X232595238Y-88252380D01*
X232690476Y-88300000D01*
X232738095Y-88347619D01*
X232785714Y-88442857D01*
X232785714Y-88538095D01*
X232738095Y-88680952D01*
X232166666Y-89252380D01*
X232785714Y-89252380D01*
%TO.C,R4*%
X234633333Y-85452380D02*
X234300000Y-84976190D01*
X234061904Y-85452380D02*
X234061904Y-84452380D01*
X234442857Y-84452380D01*
X234538095Y-84500000D01*
X234585714Y-84547619D01*
X234633333Y-84642857D01*
X234633333Y-84785714D01*
X234585714Y-84880952D01*
X234538095Y-84928571D01*
X234442857Y-84976190D01*
X234061904Y-84976190D01*
X235490476Y-84785714D02*
X235490476Y-85452380D01*
X235252380Y-84404761D02*
X235014285Y-85119047D01*
X235633333Y-85119047D01*
%TO.C,R22*%
X199714880Y-84642857D02*
X199238690Y-84976190D01*
X199714880Y-85214285D02*
X198714880Y-85214285D01*
X198714880Y-84833333D01*
X198762500Y-84738095D01*
X198810119Y-84690476D01*
X198905357Y-84642857D01*
X199048214Y-84642857D01*
X199143452Y-84690476D01*
X199191071Y-84738095D01*
X199238690Y-84833333D01*
X199238690Y-85214285D01*
X198810119Y-84261904D02*
X198762500Y-84214285D01*
X198714880Y-84119047D01*
X198714880Y-83880952D01*
X198762500Y-83785714D01*
X198810119Y-83738095D01*
X198905357Y-83690476D01*
X199000595Y-83690476D01*
X199143452Y-83738095D01*
X199714880Y-84309523D01*
X199714880Y-83690476D01*
X198810119Y-83309523D02*
X198762500Y-83261904D01*
X198714880Y-83166666D01*
X198714880Y-82928571D01*
X198762500Y-82833333D01*
X198810119Y-82785714D01*
X198905357Y-82738095D01*
X199000595Y-82738095D01*
X199143452Y-82785714D01*
X199714880Y-83357142D01*
X199714880Y-82738095D01*
%TO.C,R11*%
X207496706Y-78452380D02*
X207163373Y-77976190D01*
X206925278Y-78452380D02*
X206925278Y-77452380D01*
X207306230Y-77452380D01*
X207401468Y-77500000D01*
X207449087Y-77547619D01*
X207496706Y-77642857D01*
X207496706Y-77785714D01*
X207449087Y-77880952D01*
X207401468Y-77928571D01*
X207306230Y-77976190D01*
X206925278Y-77976190D01*
X208449087Y-78452380D02*
X207877659Y-78452380D01*
X208163373Y-78452380D02*
X208163373Y-77452380D01*
X208068135Y-77595238D01*
X207972897Y-77690476D01*
X207877659Y-77738095D01*
X209401468Y-78452380D02*
X208830040Y-78452380D01*
X209115754Y-78452380D02*
X209115754Y-77452380D01*
X209020516Y-77595238D01*
X208925278Y-77690476D01*
X208830040Y-77738095D01*
%TO.C,Q4*%
X213737619Y-84265238D02*
X213690000Y-84360476D01*
X213594761Y-84455714D01*
X213451904Y-84598571D01*
X213404285Y-84693809D01*
X213404285Y-84789047D01*
X213642380Y-84741428D02*
X213594761Y-84836666D01*
X213499523Y-84931904D01*
X213309047Y-84979523D01*
X212975714Y-84979523D01*
X212785238Y-84931904D01*
X212690000Y-84836666D01*
X212642380Y-84741428D01*
X212642380Y-84550952D01*
X212690000Y-84455714D01*
X212785238Y-84360476D01*
X212975714Y-84312857D01*
X213309047Y-84312857D01*
X213499523Y-84360476D01*
X213594761Y-84455714D01*
X213642380Y-84550952D01*
X213642380Y-84741428D01*
X212975714Y-83455714D02*
X213642380Y-83455714D01*
X212594761Y-83693809D02*
X213309047Y-83931904D01*
X213309047Y-83312857D01*
%TO.C,H2*%
X174238095Y-89552380D02*
X174238095Y-88552380D01*
X174238095Y-89028571D02*
X174809523Y-89028571D01*
X174809523Y-89552380D02*
X174809523Y-88552380D01*
X175238095Y-88647619D02*
X175285714Y-88600000D01*
X175380952Y-88552380D01*
X175619047Y-88552380D01*
X175714285Y-88600000D01*
X175761904Y-88647619D01*
X175809523Y-88742857D01*
X175809523Y-88838095D01*
X175761904Y-88980952D01*
X175190476Y-89552380D01*
X175809523Y-89552380D01*
%TO.C,R3*%
X183702380Y-73216666D02*
X183226190Y-73550000D01*
X183702380Y-73788095D02*
X182702380Y-73788095D01*
X182702380Y-73407142D01*
X182750000Y-73311904D01*
X182797619Y-73264285D01*
X182892857Y-73216666D01*
X183035714Y-73216666D01*
X183130952Y-73264285D01*
X183178571Y-73311904D01*
X183226190Y-73407142D01*
X183226190Y-73788095D01*
X182702380Y-72883333D02*
X182702380Y-72264285D01*
X183083333Y-72597619D01*
X183083333Y-72454761D01*
X183130952Y-72359523D01*
X183178571Y-72311904D01*
X183273809Y-72264285D01*
X183511904Y-72264285D01*
X183607142Y-72311904D01*
X183654761Y-72359523D01*
X183702380Y-72454761D01*
X183702380Y-72740476D01*
X183654761Y-72835714D01*
X183607142Y-72883333D01*
%TO.C,SW1*%
X206676666Y-74097261D02*
X206819523Y-74144880D01*
X207057619Y-74144880D01*
X207152857Y-74097261D01*
X207200476Y-74049642D01*
X207248095Y-73954404D01*
X207248095Y-73859166D01*
X207200476Y-73763928D01*
X207152857Y-73716309D01*
X207057619Y-73668690D01*
X206867142Y-73621071D01*
X206771904Y-73573452D01*
X206724285Y-73525833D01*
X206676666Y-73430595D01*
X206676666Y-73335357D01*
X206724285Y-73240119D01*
X206771904Y-73192500D01*
X206867142Y-73144880D01*
X207105238Y-73144880D01*
X207248095Y-73192500D01*
X207581428Y-73144880D02*
X207819523Y-74144880D01*
X208010000Y-73430595D01*
X208200476Y-74144880D01*
X208438571Y-73144880D01*
X209343333Y-74144880D02*
X208771904Y-74144880D01*
X209057619Y-74144880D02*
X209057619Y-73144880D01*
X208962380Y-73287738D01*
X208867142Y-73382976D01*
X208771904Y-73430595D01*
%TO.C,R9*%
X191833333Y-69714880D02*
X191500000Y-69238690D01*
X191261904Y-69714880D02*
X191261904Y-68714880D01*
X191642857Y-68714880D01*
X191738095Y-68762500D01*
X191785714Y-68810119D01*
X191833333Y-68905357D01*
X191833333Y-69048214D01*
X191785714Y-69143452D01*
X191738095Y-69191071D01*
X191642857Y-69238690D01*
X191261904Y-69238690D01*
X192309523Y-69714880D02*
X192500000Y-69714880D01*
X192595238Y-69667261D01*
X192642857Y-69619642D01*
X192738095Y-69476785D01*
X192785714Y-69286309D01*
X192785714Y-68905357D01*
X192738095Y-68810119D01*
X192690476Y-68762500D01*
X192595238Y-68714880D01*
X192404761Y-68714880D01*
X192309523Y-68762500D01*
X192261904Y-68810119D01*
X192214285Y-68905357D01*
X192214285Y-69143452D01*
X192261904Y-69238690D01*
X192309523Y-69286309D01*
X192404761Y-69333928D01*
X192595238Y-69333928D01*
X192690476Y-69286309D01*
X192738095Y-69238690D01*
X192785714Y-69143452D01*
%TO.C,J2*%
X234966666Y-94352380D02*
X234966666Y-95066666D01*
X234919047Y-95209523D01*
X234823809Y-95304761D01*
X234680952Y-95352380D01*
X234585714Y-95352380D01*
X235395238Y-94447619D02*
X235442857Y-94400000D01*
X235538095Y-94352380D01*
X235776190Y-94352380D01*
X235871428Y-94400000D01*
X235919047Y-94447619D01*
X235966666Y-94542857D01*
X235966666Y-94638095D01*
X235919047Y-94780952D01*
X235347619Y-95352380D01*
X235966666Y-95352380D01*
%TO.C,D6*%
X178502380Y-89118095D02*
X177502380Y-89118095D01*
X177502380Y-88880000D01*
X177550000Y-88737142D01*
X177645238Y-88641904D01*
X177740476Y-88594285D01*
X177930952Y-88546666D01*
X178073809Y-88546666D01*
X178264285Y-88594285D01*
X178359523Y-88641904D01*
X178454761Y-88737142D01*
X178502380Y-88880000D01*
X178502380Y-89118095D01*
X177502380Y-87689523D02*
X177502380Y-87880000D01*
X177550000Y-87975238D01*
X177597619Y-88022857D01*
X177740476Y-88118095D01*
X177930952Y-88165714D01*
X178311904Y-88165714D01*
X178407142Y-88118095D01*
X178454761Y-88070476D01*
X178502380Y-87975238D01*
X178502380Y-87784761D01*
X178454761Y-87689523D01*
X178407142Y-87641904D01*
X178311904Y-87594285D01*
X178073809Y-87594285D01*
X177978571Y-87641904D01*
X177930952Y-87689523D01*
X177883333Y-87784761D01*
X177883333Y-87975238D01*
X177930952Y-88070476D01*
X177978571Y-88118095D01*
X178073809Y-88165714D01*
%TO.C,R13*%
X203182142Y-85452380D02*
X202848809Y-84976190D01*
X202610714Y-85452380D02*
X202610714Y-84452380D01*
X202991666Y-84452380D01*
X203086904Y-84500000D01*
X203134523Y-84547619D01*
X203182142Y-84642857D01*
X203182142Y-84785714D01*
X203134523Y-84880952D01*
X203086904Y-84928571D01*
X202991666Y-84976190D01*
X202610714Y-84976190D01*
X204134523Y-85452380D02*
X203563095Y-85452380D01*
X203848809Y-85452380D02*
X203848809Y-84452380D01*
X203753571Y-84595238D01*
X203658333Y-84690476D01*
X203563095Y-84738095D01*
X204467857Y-84452380D02*
X205086904Y-84452380D01*
X204753571Y-84833333D01*
X204896428Y-84833333D01*
X204991666Y-84880952D01*
X205039285Y-84928571D01*
X205086904Y-85023809D01*
X205086904Y-85261904D01*
X205039285Y-85357142D01*
X204991666Y-85404761D01*
X204896428Y-85452380D01*
X204610714Y-85452380D01*
X204515476Y-85404761D01*
X204467857Y-85357142D01*
%TO.C,R12*%
X196989880Y-80392857D02*
X196513690Y-80726190D01*
X196989880Y-80964285D02*
X195989880Y-80964285D01*
X195989880Y-80583333D01*
X196037500Y-80488095D01*
X196085119Y-80440476D01*
X196180357Y-80392857D01*
X196323214Y-80392857D01*
X196418452Y-80440476D01*
X196466071Y-80488095D01*
X196513690Y-80583333D01*
X196513690Y-80964285D01*
X196989880Y-79440476D02*
X196989880Y-80011904D01*
X196989880Y-79726190D02*
X195989880Y-79726190D01*
X196132738Y-79821428D01*
X196227976Y-79916666D01*
X196275595Y-80011904D01*
X196085119Y-79059523D02*
X196037500Y-79011904D01*
X195989880Y-78916666D01*
X195989880Y-78678571D01*
X196037500Y-78583333D01*
X196085119Y-78535714D01*
X196180357Y-78488095D01*
X196275595Y-78488095D01*
X196418452Y-78535714D01*
X196989880Y-79107142D01*
X196989880Y-78488095D01*
%TO.C,Q2*%
X220527619Y-69995238D02*
X220480000Y-70090476D01*
X220384761Y-70185714D01*
X220241904Y-70328571D01*
X220194285Y-70423809D01*
X220194285Y-70519047D01*
X220432380Y-70471428D02*
X220384761Y-70566666D01*
X220289523Y-70661904D01*
X220099047Y-70709523D01*
X219765714Y-70709523D01*
X219575238Y-70661904D01*
X219480000Y-70566666D01*
X219432380Y-70471428D01*
X219432380Y-70280952D01*
X219480000Y-70185714D01*
X219575238Y-70090476D01*
X219765714Y-70042857D01*
X220099047Y-70042857D01*
X220289523Y-70090476D01*
X220384761Y-70185714D01*
X220432380Y-70280952D01*
X220432380Y-70471428D01*
X219527619Y-69661904D02*
X219480000Y-69614285D01*
X219432380Y-69519047D01*
X219432380Y-69280952D01*
X219480000Y-69185714D01*
X219527619Y-69138095D01*
X219622857Y-69090476D01*
X219718095Y-69090476D01*
X219860952Y-69138095D01*
X220432380Y-69709523D01*
X220432380Y-69090476D01*
%TO.C,R1*%
X198833333Y-74802380D02*
X198500000Y-74326190D01*
X198261904Y-74802380D02*
X198261904Y-73802380D01*
X198642857Y-73802380D01*
X198738095Y-73850000D01*
X198785714Y-73897619D01*
X198833333Y-73992857D01*
X198833333Y-74135714D01*
X198785714Y-74230952D01*
X198738095Y-74278571D01*
X198642857Y-74326190D01*
X198261904Y-74326190D01*
X199785714Y-74802380D02*
X199214285Y-74802380D01*
X199500000Y-74802380D02*
X199500000Y-73802380D01*
X199404761Y-73945238D01*
X199309523Y-74040476D01*
X199214285Y-74088095D01*
%TO.C,D8*%
X196452380Y-89278095D02*
X195452380Y-89278095D01*
X195452380Y-89040000D01*
X195500000Y-88897142D01*
X195595238Y-88801904D01*
X195690476Y-88754285D01*
X195880952Y-88706666D01*
X196023809Y-88706666D01*
X196214285Y-88754285D01*
X196309523Y-88801904D01*
X196404761Y-88897142D01*
X196452380Y-89040000D01*
X196452380Y-89278095D01*
X195880952Y-88135238D02*
X195833333Y-88230476D01*
X195785714Y-88278095D01*
X195690476Y-88325714D01*
X195642857Y-88325714D01*
X195547619Y-88278095D01*
X195500000Y-88230476D01*
X195452380Y-88135238D01*
X195452380Y-87944761D01*
X195500000Y-87849523D01*
X195547619Y-87801904D01*
X195642857Y-87754285D01*
X195690476Y-87754285D01*
X195785714Y-87801904D01*
X195833333Y-87849523D01*
X195880952Y-87944761D01*
X195880952Y-88135238D01*
X195928571Y-88230476D01*
X195976190Y-88278095D01*
X196071428Y-88325714D01*
X196261904Y-88325714D01*
X196357142Y-88278095D01*
X196404761Y-88230476D01*
X196452380Y-88135238D01*
X196452380Y-87944761D01*
X196404761Y-87849523D01*
X196357142Y-87801904D01*
X196261904Y-87754285D01*
X196071428Y-87754285D01*
X195976190Y-87801904D01*
X195928571Y-87849523D01*
X195880952Y-87944761D01*
%TO.C,Q3*%
X225987619Y-79825238D02*
X225940000Y-79920476D01*
X225844761Y-80015714D01*
X225701904Y-80158571D01*
X225654285Y-80253809D01*
X225654285Y-80349047D01*
X225892380Y-80301428D02*
X225844761Y-80396666D01*
X225749523Y-80491904D01*
X225559047Y-80539523D01*
X225225714Y-80539523D01*
X225035238Y-80491904D01*
X224940000Y-80396666D01*
X224892380Y-80301428D01*
X224892380Y-80110952D01*
X224940000Y-80015714D01*
X225035238Y-79920476D01*
X225225714Y-79872857D01*
X225559047Y-79872857D01*
X225749523Y-79920476D01*
X225844761Y-80015714D01*
X225892380Y-80110952D01*
X225892380Y-80301428D01*
X224892380Y-79539523D02*
X224892380Y-78920476D01*
X225273333Y-79253809D01*
X225273333Y-79110952D01*
X225320952Y-79015714D01*
X225368571Y-78968095D01*
X225463809Y-78920476D01*
X225701904Y-78920476D01*
X225797142Y-78968095D01*
X225844761Y-79015714D01*
X225892380Y-79110952D01*
X225892380Y-79396666D01*
X225844761Y-79491904D01*
X225797142Y-79539523D01*
%TO.C,R14*%
X227377142Y-86172380D02*
X227043809Y-85696190D01*
X226805714Y-86172380D02*
X226805714Y-85172380D01*
X227186666Y-85172380D01*
X227281904Y-85220000D01*
X227329523Y-85267619D01*
X227377142Y-85362857D01*
X227377142Y-85505714D01*
X227329523Y-85600952D01*
X227281904Y-85648571D01*
X227186666Y-85696190D01*
X226805714Y-85696190D01*
X228329523Y-86172380D02*
X227758095Y-86172380D01*
X228043809Y-86172380D02*
X228043809Y-85172380D01*
X227948571Y-85315238D01*
X227853333Y-85410476D01*
X227758095Y-85458095D01*
X229186666Y-85505714D02*
X229186666Y-86172380D01*
X228948571Y-85124761D02*
X228710476Y-85839047D01*
X229329523Y-85839047D01*
%TO.C,R6*%
X187923333Y-92642380D02*
X187590000Y-92166190D01*
X187351904Y-92642380D02*
X187351904Y-91642380D01*
X187732857Y-91642380D01*
X187828095Y-91690000D01*
X187875714Y-91737619D01*
X187923333Y-91832857D01*
X187923333Y-91975714D01*
X187875714Y-92070952D01*
X187828095Y-92118571D01*
X187732857Y-92166190D01*
X187351904Y-92166190D01*
X188780476Y-91642380D02*
X188590000Y-91642380D01*
X188494761Y-91690000D01*
X188447142Y-91737619D01*
X188351904Y-91880476D01*
X188304285Y-92070952D01*
X188304285Y-92451904D01*
X188351904Y-92547142D01*
X188399523Y-92594761D01*
X188494761Y-92642380D01*
X188685238Y-92642380D01*
X188780476Y-92594761D01*
X188828095Y-92547142D01*
X188875714Y-92451904D01*
X188875714Y-92213809D01*
X188828095Y-92118571D01*
X188780476Y-92070952D01*
X188685238Y-92023333D01*
X188494761Y-92023333D01*
X188399523Y-92070952D01*
X188351904Y-92118571D01*
X188304285Y-92213809D01*
%TO.C,R15*%
X231732380Y-76632857D02*
X231256190Y-76966190D01*
X231732380Y-77204285D02*
X230732380Y-77204285D01*
X230732380Y-76823333D01*
X230780000Y-76728095D01*
X230827619Y-76680476D01*
X230922857Y-76632857D01*
X231065714Y-76632857D01*
X231160952Y-76680476D01*
X231208571Y-76728095D01*
X231256190Y-76823333D01*
X231256190Y-77204285D01*
X231732380Y-75680476D02*
X231732380Y-76251904D01*
X231732380Y-75966190D02*
X230732380Y-75966190D01*
X230875238Y-76061428D01*
X230970476Y-76156666D01*
X231018095Y-76251904D01*
X230732380Y-74775714D02*
X230732380Y-75251904D01*
X231208571Y-75299523D01*
X231160952Y-75251904D01*
X231113333Y-75156666D01*
X231113333Y-74918571D01*
X231160952Y-74823333D01*
X231208571Y-74775714D01*
X231303809Y-74728095D01*
X231541904Y-74728095D01*
X231637142Y-74775714D01*
X231684761Y-74823333D01*
X231732380Y-74918571D01*
X231732380Y-75156666D01*
X231684761Y-75251904D01*
X231637142Y-75299523D01*
%TO.C,R23*%
X191444642Y-92802380D02*
X191111309Y-92326190D01*
X190873214Y-92802380D02*
X190873214Y-91802380D01*
X191254166Y-91802380D01*
X191349404Y-91850000D01*
X191397023Y-91897619D01*
X191444642Y-91992857D01*
X191444642Y-92135714D01*
X191397023Y-92230952D01*
X191349404Y-92278571D01*
X191254166Y-92326190D01*
X190873214Y-92326190D01*
X191825595Y-91897619D02*
X191873214Y-91850000D01*
X191968452Y-91802380D01*
X192206547Y-91802380D01*
X192301785Y-91850000D01*
X192349404Y-91897619D01*
X192397023Y-91992857D01*
X192397023Y-92088095D01*
X192349404Y-92230952D01*
X191777976Y-92802380D01*
X192397023Y-92802380D01*
X192730357Y-91802380D02*
X193349404Y-91802380D01*
X193016071Y-92183333D01*
X193158928Y-92183333D01*
X193254166Y-92230952D01*
X193301785Y-92278571D01*
X193349404Y-92373809D01*
X193349404Y-92611904D01*
X193301785Y-92707142D01*
X193254166Y-92754761D01*
X193158928Y-92802380D01*
X192873214Y-92802380D01*
X192777976Y-92754761D01*
X192730357Y-92707142D01*
%TO.C,D7*%
X213452380Y-84738095D02*
X212452380Y-84738095D01*
X212452380Y-84500000D01*
X212500000Y-84357142D01*
X212595238Y-84261904D01*
X212690476Y-84214285D01*
X212880952Y-84166666D01*
X213023809Y-84166666D01*
X213214285Y-84214285D01*
X213309523Y-84261904D01*
X213404761Y-84357142D01*
X213452380Y-84500000D01*
X213452380Y-84738095D01*
X212452380Y-83833333D02*
X212452380Y-83166666D01*
X213452380Y-83595238D01*
%TO.C,U1*%
X186562380Y-80821904D02*
X187371904Y-80821904D01*
X187467142Y-80774285D01*
X187514761Y-80726666D01*
X187562380Y-80631428D01*
X187562380Y-80440952D01*
X187514761Y-80345714D01*
X187467142Y-80298095D01*
X187371904Y-80250476D01*
X186562380Y-80250476D01*
X187562380Y-79250476D02*
X187562380Y-79821904D01*
X187562380Y-79536190D02*
X186562380Y-79536190D01*
X186705238Y-79631428D01*
X186800476Y-79726666D01*
X186848095Y-79821904D01*
%TO.C,D3*%
X224442380Y-74028095D02*
X223442380Y-74028095D01*
X223442380Y-73790000D01*
X223490000Y-73647142D01*
X223585238Y-73551904D01*
X223680476Y-73504285D01*
X223870952Y-73456666D01*
X224013809Y-73456666D01*
X224204285Y-73504285D01*
X224299523Y-73551904D01*
X224394761Y-73647142D01*
X224442380Y-73790000D01*
X224442380Y-74028095D01*
X223442380Y-73123333D02*
X223442380Y-72504285D01*
X223823333Y-72837619D01*
X223823333Y-72694761D01*
X223870952Y-72599523D01*
X223918571Y-72551904D01*
X224013809Y-72504285D01*
X224251904Y-72504285D01*
X224347142Y-72551904D01*
X224394761Y-72599523D01*
X224442380Y-72694761D01*
X224442380Y-72980476D01*
X224394761Y-73075714D01*
X224347142Y-73123333D01*
%TO.C,D2*%
X213392380Y-78868095D02*
X212392380Y-78868095D01*
X212392380Y-78630000D01*
X212440000Y-78487142D01*
X212535238Y-78391904D01*
X212630476Y-78344285D01*
X212820952Y-78296666D01*
X212963809Y-78296666D01*
X213154285Y-78344285D01*
X213249523Y-78391904D01*
X213344761Y-78487142D01*
X213392380Y-78630000D01*
X213392380Y-78868095D01*
X212487619Y-77915714D02*
X212440000Y-77868095D01*
X212392380Y-77772857D01*
X212392380Y-77534761D01*
X212440000Y-77439523D01*
X212487619Y-77391904D01*
X212582857Y-77344285D01*
X212678095Y-77344285D01*
X212820952Y-77391904D01*
X213392380Y-77963333D01*
X213392380Y-77344285D01*
%TO.C,R16*%
X179357142Y-92452380D02*
X179023809Y-91976190D01*
X178785714Y-92452380D02*
X178785714Y-91452380D01*
X179166666Y-91452380D01*
X179261904Y-91500000D01*
X179309523Y-91547619D01*
X179357142Y-91642857D01*
X179357142Y-91785714D01*
X179309523Y-91880952D01*
X179261904Y-91928571D01*
X179166666Y-91976190D01*
X178785714Y-91976190D01*
X180309523Y-92452380D02*
X179738095Y-92452380D01*
X180023809Y-92452380D02*
X180023809Y-91452380D01*
X179928571Y-91595238D01*
X179833333Y-91690476D01*
X179738095Y-91738095D01*
X181166666Y-91452380D02*
X180976190Y-91452380D01*
X180880952Y-91500000D01*
X180833333Y-91547619D01*
X180738095Y-91690476D01*
X180690476Y-91880952D01*
X180690476Y-92261904D01*
X180738095Y-92357142D01*
X180785714Y-92404761D01*
X180880952Y-92452380D01*
X181071428Y-92452380D01*
X181166666Y-92404761D01*
X181214285Y-92357142D01*
X181261904Y-92261904D01*
X181261904Y-92023809D01*
X181214285Y-91928571D01*
X181166666Y-91880952D01*
X181071428Y-91833333D01*
X180880952Y-91833333D01*
X180785714Y-91880952D01*
X180738095Y-91928571D01*
X180690476Y-92023809D01*
%TO.C,D9*%
X223261904Y-89452380D02*
X223261904Y-88452380D01*
X223500000Y-88452380D01*
X223642857Y-88500000D01*
X223738095Y-88595238D01*
X223785714Y-88690476D01*
X223833333Y-88880952D01*
X223833333Y-89023809D01*
X223785714Y-89214285D01*
X223738095Y-89309523D01*
X223642857Y-89404761D01*
X223500000Y-89452380D01*
X223261904Y-89452380D01*
X224309523Y-89452380D02*
X224500000Y-89452380D01*
X224595238Y-89404761D01*
X224642857Y-89357142D01*
X224738095Y-89214285D01*
X224785714Y-89023809D01*
X224785714Y-88642857D01*
X224738095Y-88547619D01*
X224690476Y-88500000D01*
X224595238Y-88452380D01*
X224404761Y-88452380D01*
X224309523Y-88500000D01*
X224261904Y-88547619D01*
X224214285Y-88642857D01*
X224214285Y-88880952D01*
X224261904Y-88976190D01*
X224309523Y-89023809D01*
X224404761Y-89071428D01*
X224595238Y-89071428D01*
X224690476Y-89023809D01*
X224738095Y-88976190D01*
X224785714Y-88880952D01*
%TO.C,D4*%
X183981904Y-85672380D02*
X183981904Y-84672380D01*
X184220000Y-84672380D01*
X184362857Y-84720000D01*
X184458095Y-84815238D01*
X184505714Y-84910476D01*
X184553333Y-85100952D01*
X184553333Y-85243809D01*
X184505714Y-85434285D01*
X184458095Y-85529523D01*
X184362857Y-85624761D01*
X184220000Y-85672380D01*
X183981904Y-85672380D01*
X185410476Y-85005714D02*
X185410476Y-85672380D01*
X185172380Y-84624761D02*
X184934285Y-85339047D01*
X185553333Y-85339047D01*
%TO.C,C3*%
X195833333Y-72949642D02*
X195785714Y-72997261D01*
X195642857Y-73044880D01*
X195547619Y-73044880D01*
X195404761Y-72997261D01*
X195309523Y-72902023D01*
X195261904Y-72806785D01*
X195214285Y-72616309D01*
X195214285Y-72473452D01*
X195261904Y-72282976D01*
X195309523Y-72187738D01*
X195404761Y-72092500D01*
X195547619Y-72044880D01*
X195642857Y-72044880D01*
X195785714Y-72092500D01*
X195833333Y-72140119D01*
X196166666Y-72044880D02*
X196785714Y-72044880D01*
X196452380Y-72425833D01*
X196595238Y-72425833D01*
X196690476Y-72473452D01*
X196738095Y-72521071D01*
X196785714Y-72616309D01*
X196785714Y-72854404D01*
X196738095Y-72949642D01*
X196690476Y-72997261D01*
X196595238Y-73044880D01*
X196309523Y-73044880D01*
X196214285Y-72997261D01*
X196166666Y-72949642D01*
%TO.C,R5*%
X188452380Y-70079166D02*
X187976190Y-70412500D01*
X188452380Y-70650595D02*
X187452380Y-70650595D01*
X187452380Y-70269642D01*
X187500000Y-70174404D01*
X187547619Y-70126785D01*
X187642857Y-70079166D01*
X187785714Y-70079166D01*
X187880952Y-70126785D01*
X187928571Y-70174404D01*
X187976190Y-70269642D01*
X187976190Y-70650595D01*
X187452380Y-69174404D02*
X187452380Y-69650595D01*
X187928571Y-69698214D01*
X187880952Y-69650595D01*
X187833333Y-69555357D01*
X187833333Y-69317261D01*
X187880952Y-69222023D01*
X187928571Y-69174404D01*
X188023809Y-69126785D01*
X188261904Y-69126785D01*
X188357142Y-69174404D01*
X188404761Y-69222023D01*
X188452380Y-69317261D01*
X188452380Y-69555357D01*
X188404761Y-69650595D01*
X188357142Y-69698214D01*
%TO.C,C2*%
X181677142Y-77166666D02*
X181724761Y-77214285D01*
X181772380Y-77357142D01*
X181772380Y-77452380D01*
X181724761Y-77595238D01*
X181629523Y-77690476D01*
X181534285Y-77738095D01*
X181343809Y-77785714D01*
X181200952Y-77785714D01*
X181010476Y-77738095D01*
X180915238Y-77690476D01*
X180820000Y-77595238D01*
X180772380Y-77452380D01*
X180772380Y-77357142D01*
X180820000Y-77214285D01*
X180867619Y-77166666D01*
X180867619Y-76785714D02*
X180820000Y-76738095D01*
X180772380Y-76642857D01*
X180772380Y-76404761D01*
X180820000Y-76309523D01*
X180867619Y-76261904D01*
X180962857Y-76214285D01*
X181058095Y-76214285D01*
X181200952Y-76261904D01*
X181772380Y-76833333D01*
X181772380Y-76214285D01*
%TO.C,R21*%
X195714880Y-84642857D02*
X195238690Y-84976190D01*
X195714880Y-85214285D02*
X194714880Y-85214285D01*
X194714880Y-84833333D01*
X194762500Y-84738095D01*
X194810119Y-84690476D01*
X194905357Y-84642857D01*
X195048214Y-84642857D01*
X195143452Y-84690476D01*
X195191071Y-84738095D01*
X195238690Y-84833333D01*
X195238690Y-85214285D01*
X194810119Y-84261904D02*
X194762500Y-84214285D01*
X194714880Y-84119047D01*
X194714880Y-83880952D01*
X194762500Y-83785714D01*
X194810119Y-83738095D01*
X194905357Y-83690476D01*
X195000595Y-83690476D01*
X195143452Y-83738095D01*
X195714880Y-84309523D01*
X195714880Y-83690476D01*
X195714880Y-82738095D02*
X195714880Y-83309523D01*
X195714880Y-83023809D02*
X194714880Y-83023809D01*
X194857738Y-83119047D01*
X194952976Y-83214285D01*
X195000595Y-83309523D01*
D11*
%TO.C,J3*%
X243500000Y-72000000D02*
G75*
G03*
X243500000Y-72000000I-4500000J0D01*
G01*
%TO.C,D1*%
X194250000Y-74912500D02*
X194250000Y-72912500D01*
X194250000Y-74912500D02*
X190350000Y-74912500D01*
X194250000Y-72912500D02*
X190350000Y-72912500D01*
%TO.C,R19*%
X204227064Y-76735000D02*
X203772936Y-76735000D01*
X204227064Y-75265000D02*
X203772936Y-75265000D01*
%TO.C,R10*%
X184314564Y-94735000D02*
X183860436Y-94735000D01*
X184314564Y-93265000D02*
X183860436Y-93265000D01*
%TO.C,Q5*%
X198470000Y-94850000D02*
X202070000Y-94850000D01*
X200270000Y-90399999D02*
G75*
G03*
X198431522Y-94838478I0J-2600001D01*
G01*
X202108478Y-94838478D02*
G75*
G03*
X200270000Y-90400000I-1838478J1838478D01*
G01*
%TO.C,C5*%
X220265000Y-80261252D02*
X220265000Y-79738748D01*
X221735000Y-80261252D02*
X221735000Y-79738748D01*
%TO.C,D5*%
X223000000Y-85250000D02*
X225000000Y-85250000D01*
X223000000Y-85250000D02*
X223000000Y-81350000D01*
X225000000Y-85250000D02*
X225000000Y-81350000D01*
%TO.C,R7*%
X183735000Y-80722936D02*
X183735000Y-81177064D01*
X182265000Y-80722936D02*
X182265000Y-81177064D01*
%TO.C,Q1*%
X238850000Y-81530000D02*
X238850000Y-77930000D01*
X234399999Y-79730000D02*
G75*
G03*
X238838478Y-81568478I2600001J0D01*
G01*
X238838478Y-77891522D02*
G75*
G03*
X234400000Y-79730000I-1838478J-1838478D01*
G01*
%TO.C,C6*%
X204738748Y-79265000D02*
X205261252Y-79265000D01*
X204738748Y-80735000D02*
X205261252Y-80735000D01*
%TO.C,R24*%
X233735000Y-81772936D02*
X233735000Y-82227064D01*
X232265000Y-81772936D02*
X232265000Y-82227064D01*
%TO.C,R17*%
X207735000Y-84772936D02*
X207735000Y-85227064D01*
X206265000Y-84772936D02*
X206265000Y-85227064D01*
%TO.C,R18*%
X220265000Y-86227064D02*
X220265000Y-85772936D01*
X221735000Y-86227064D02*
X221735000Y-85772936D01*
%TO.C,R8*%
X215735000Y-74772936D02*
X215735000Y-75227064D01*
X214265000Y-74772936D02*
X214265000Y-75227064D01*
%TO.C,R20*%
X202735000Y-71772936D02*
X202735000Y-72227064D01*
X201265000Y-71772936D02*
X201265000Y-72227064D01*
%TO.C,C7*%
X228265000Y-88261252D02*
X228265000Y-87738748D01*
X229735000Y-88261252D02*
X229735000Y-87738748D01*
%TO.C,SW2*%
X205590000Y-88740000D02*
X214410000Y-88740000D01*
X205590000Y-89050000D02*
X205590000Y-88740000D01*
X205590000Y-93260000D02*
X205590000Y-92950000D01*
X207500000Y-88040000D02*
X208000000Y-88540000D01*
X208000000Y-88540000D02*
X208500000Y-88040000D01*
X208500000Y-88040000D02*
X207500000Y-88040000D01*
X214410000Y-88740000D02*
X214410000Y-89050000D01*
X214410000Y-93260000D02*
X205590000Y-93260000D01*
X214410000Y-93260000D02*
X214410000Y-92950000D01*
%TO.C,J1*%
X180700000Y-80000000D02*
G75*
G03*
X180700000Y-80000000I-4500000J0D01*
G01*
%TO.C,C4*%
X215738748Y-78265000D02*
X216261252Y-78265000D01*
X215738748Y-79735000D02*
X216261252Y-79735000D01*
%TO.C,C1*%
X227738748Y-74265000D02*
X228261252Y-74265000D01*
X227738748Y-75735000D02*
X228261252Y-75735000D01*
%TO.C,R2*%
X231772936Y-86265000D02*
X232227064Y-86265000D01*
X231772936Y-87735000D02*
X232227064Y-87735000D01*
%TO.C,R4*%
X232227064Y-85735000D02*
X231772936Y-85735000D01*
X232227064Y-84265000D02*
X231772936Y-84265000D01*
%TO.C,R22*%
X200177500Y-84227064D02*
X200177500Y-83772936D01*
X201647500Y-84227064D02*
X201647500Y-83772936D01*
%TO.C,R11*%
X208139564Y-76735000D02*
X207685436Y-76735000D01*
X208139564Y-75265000D02*
X207685436Y-75265000D01*
%TO.C,Q4*%
X214150000Y-82470000D02*
X214150000Y-86070000D01*
X218600001Y-84270000D02*
G75*
G03*
X214161522Y-82431522I-2600001J0D01*
G01*
X214161522Y-86108478D02*
G75*
G03*
X218600000Y-84270000I1838478J1838478D01*
G01*
%TO.C,R3*%
X184265000Y-73227064D02*
X184265000Y-72772936D01*
X185735000Y-73227064D02*
X185735000Y-72772936D01*
%TO.C,SW1*%
X214410000Y-72962500D02*
X205590000Y-72962500D01*
X214410000Y-72652500D02*
X214410000Y-72962500D01*
X214410000Y-68442500D02*
X214410000Y-68752500D01*
X212500000Y-73662500D02*
X212000000Y-73162500D01*
X212000000Y-73162500D02*
X211500000Y-73662500D01*
X211500000Y-73662500D02*
X212500000Y-73662500D01*
X205590000Y-72962500D02*
X205590000Y-72652500D01*
X205590000Y-68442500D02*
X214410000Y-68442500D01*
X205590000Y-68442500D02*
X205590000Y-68752500D01*
%TO.C,R9*%
X191772936Y-70177500D02*
X192227064Y-70177500D01*
X191772936Y-71647500D02*
X192227064Y-71647500D01*
%TO.C,J2*%
X243500000Y-90000000D02*
G75*
G03*
X243500000Y-90000000I-4500000J0D01*
G01*
%TO.C,D6*%
X182236000Y-86710000D02*
X182080000Y-86710000D01*
X179920000Y-86710000D02*
X179764000Y-86710000D01*
X182078608Y-89942335D02*
G75*
G03*
X182235516Y-86710000I-1078609J1672335D01*
G01*
X182079837Y-89311130D02*
G75*
G03*
X182080000Y-87229039I-1079837J1041130D01*
G01*
X179920000Y-87229039D02*
G75*
G03*
X179920163Y-89311130I1080000J-1040961D01*
G01*
X179764484Y-86710000D02*
G75*
G03*
X179921392Y-89942335I1235517J-1560000D01*
G01*
%TO.C,R13*%
X203597936Y-82265000D02*
X204052064Y-82265000D01*
X203597936Y-83735000D02*
X204052064Y-83735000D01*
%TO.C,R12*%
X198772936Y-79265000D02*
X199227064Y-79265000D01*
X198772936Y-80735000D02*
X199227064Y-80735000D01*
%TO.C,Q2*%
X221850000Y-75530000D02*
X221850000Y-71930000D01*
X217399999Y-73730000D02*
G75*
G03*
X221838478Y-75568478I2600001J0D01*
G01*
X221838478Y-71891522D02*
G75*
G03*
X217400000Y-73730000I-1838478J-1838478D01*
G01*
%TO.C,R1*%
X198772936Y-75265000D02*
X199227064Y-75265000D01*
X198772936Y-76735000D02*
X199227064Y-76735000D01*
%TO.C,D8*%
X194236000Y-86710000D02*
X194080000Y-86710000D01*
X191920000Y-86710000D02*
X191764000Y-86710000D01*
X194078608Y-89942335D02*
G75*
G03*
X194235516Y-86710000I-1078609J1672335D01*
G01*
X194079837Y-89311130D02*
G75*
G03*
X194080000Y-87229039I-1079837J1041130D01*
G01*
X191920000Y-87229039D02*
G75*
G03*
X191920163Y-89311130I1080000J-1040961D01*
G01*
X191764484Y-86710000D02*
G75*
G03*
X191921392Y-89942335I1235517J-1560000D01*
G01*
%TO.C,Q3*%
X230850000Y-81530000D02*
X230850000Y-77930000D01*
X226399999Y-79730000D02*
G75*
G03*
X230838478Y-81568478I2600001J0D01*
G01*
X230838478Y-77891522D02*
G75*
G03*
X226400000Y-79730000I-1838478J-1838478D01*
G01*
%TO.C,R14*%
X227772936Y-83265000D02*
X228227064Y-83265000D01*
X227772936Y-84735000D02*
X228227064Y-84735000D01*
%TO.C,R6*%
X188314564Y-94735000D02*
X187860436Y-94735000D01*
X188314564Y-93265000D02*
X187860436Y-93265000D01*
%TO.C,R15*%
X233735000Y-75772936D02*
X233735000Y-76227064D01*
X232265000Y-75772936D02*
X232265000Y-76227064D01*
%TO.C,R23*%
X191860436Y-93265000D02*
X192314564Y-93265000D01*
X191860436Y-94735000D02*
X192314564Y-94735000D01*
%TO.C,D7*%
X212000000Y-81750000D02*
X210000000Y-81750000D01*
X212000000Y-81750000D02*
X212000000Y-85650000D01*
X210000000Y-81750000D02*
X210000000Y-85650000D01*
%TO.C,U1*%
X185565000Y-80000000D02*
X185565000Y-83450000D01*
X185565000Y-80000000D02*
X185565000Y-78050000D01*
X194435000Y-80000000D02*
X194435000Y-81950000D01*
X194435000Y-80000000D02*
X194435000Y-78050000D01*
%TO.C,D3*%
X225000000Y-74750000D02*
X223000000Y-74750000D01*
X225000000Y-74750000D02*
X225000000Y-78650000D01*
X223000000Y-74750000D02*
X223000000Y-78650000D01*
%TO.C,D2*%
X212000000Y-75750000D02*
X210000000Y-75750000D01*
X212000000Y-75750000D02*
X212000000Y-79650000D01*
X210000000Y-75750000D02*
X210000000Y-79650000D01*
%TO.C,R16*%
X179772936Y-93265000D02*
X180227064Y-93265000D01*
X179772936Y-94735000D02*
X180227064Y-94735000D01*
%TO.C,D9*%
X221750000Y-90000000D02*
X221750000Y-92000000D01*
X221750000Y-90000000D02*
X225650000Y-90000000D01*
X221750000Y-92000000D02*
X225650000Y-92000000D01*
%TO.C,D4*%
X188236000Y-86710000D02*
X188080000Y-86710000D01*
X185920000Y-86710000D02*
X185764000Y-86710000D01*
X188078608Y-89942335D02*
G75*
G03*
X188235516Y-86710000I-1078609J1672335D01*
G01*
X188079837Y-89311130D02*
G75*
G03*
X188080000Y-87229039I-1079837J1041130D01*
G01*
X185920000Y-87229039D02*
G75*
G03*
X185920163Y-89311130I1080000J-1040961D01*
G01*
X185764484Y-86710000D02*
G75*
G03*
X185921392Y-89942335I1235517J-1560000D01*
G01*
%TO.C,C3*%
X196261252Y-71647500D02*
X195738748Y-71647500D01*
X196261252Y-70177500D02*
X195738748Y-70177500D01*
%TO.C,R5*%
X188735000Y-72685436D02*
X188735000Y-73139564D01*
X187265000Y-72685436D02*
X187265000Y-73139564D01*
%TO.C,C2*%
X182265000Y-77261252D02*
X182265000Y-76738748D01*
X183735000Y-77261252D02*
X183735000Y-76738748D01*
%TO.C,R21*%
X196177500Y-84227064D02*
X196177500Y-83772936D01*
X197647500Y-84227064D02*
X197647500Y-83772936D01*
%TD*%
M02*
