%TF.GenerationSoftware,KiCad,Pcbnew,(6.99.0-143-g3f711b8958)*%
%TF.CreationDate,2021-12-29T15:34:20+01:00*%
%TF.ProjectId,Logic_Probe,4c6f6769-635f-4507-926f-62652e6b6963,rev?*%
%TF.SameCoordinates,Original*%
%TF.FileFunction,Soldermask,Top*%
%TF.FilePolarity,Negative*%
%FSLAX46Y46*%
G04 Gerber Fmt 4.6, Leading zero omitted, Abs format (unit mm)*
G04 Created by KiCad (PCBNEW (6.99.0-143-g3f711b8958)) date 2021-12-29 15:34:20*
%MOMM*%
%LPD*%
G01*
G04 APERTURE LIST*
G04 Aperture macros list*
%AMRoundRect*
0 Rectangle with rounded corners*
0 $1 Rounding radius*
0 $2 $3 $4 $5 $6 $7 $8 $9 X,Y pos of 4 corners*
0 Add a 4 corners polygon primitive as box body*
4,1,4,$2,$3,$4,$5,$6,$7,$8,$9,$2,$3,0*
0 Add four circle primitives for the rounded corners*
1,1,$1+$1,$2,$3*
1,1,$1+$1,$4,$5*
1,1,$1+$1,$6,$7*
1,1,$1+$1,$8,$9*
0 Add four rect primitives between the rounded corners*
20,1,$1+$1,$2,$3,$4,$5,0*
20,1,$1+$1,$4,$5,$6,$7,0*
20,1,$1+$1,$6,$7,$8,$9,0*
20,1,$1+$1,$8,$9,$2,$3,0*%
G04 Aperture macros list end*
%ADD10C,2.200000*%
%ADD11C,7.160000*%
%ADD12R,0.900000X1.200000*%
%ADD13RoundRect,0.250000X0.262500X0.450000X-0.262500X0.450000X-0.262500X-0.450000X0.262500X-0.450000X0*%
%ADD14R,1.050000X1.500000*%
%ADD15O,1.050000X1.500000*%
%ADD16RoundRect,0.250000X0.475000X-0.250000X0.475000X0.250000X-0.475000X0.250000X-0.475000X-0.250000X0*%
%ADD17R,1.200000X0.900000*%
%ADD18RoundRect,0.250000X-0.450000X0.262500X-0.450000X-0.262500X0.450000X-0.262500X0.450000X0.262500X0*%
%ADD19R,1.500000X1.050000*%
%ADD20O,1.500000X1.050000*%
%ADD21RoundRect,0.250000X-0.250000X-0.475000X0.250000X-0.475000X0.250000X0.475000X-0.250000X0.475000X0*%
%ADD22RoundRect,0.250000X0.450000X-0.262500X0.450000X0.262500X-0.450000X0.262500X-0.450000X-0.262500X0*%
%ADD23O,2.200000X3.500000*%
%ADD24R,1.500000X2.500000*%
%ADD25O,1.500000X2.500000*%
%ADD26RoundRect,0.250000X-0.262500X-0.450000X0.262500X-0.450000X0.262500X0.450000X-0.262500X0.450000X0*%
%ADD27R,1.800000X1.800000*%
%ADD28C,1.800000*%
%ADD29RoundRect,0.150000X0.150000X-0.825000X0.150000X0.825000X-0.150000X0.825000X-0.150000X-0.825000X0*%
%ADD30RoundRect,0.250000X0.250000X0.475000X-0.250000X0.475000X-0.250000X-0.475000X0.250000X-0.475000X0*%
G04 APERTURE END LIST*
D10*
%TO.C,H3*%
X247000000Y-70000000D03*
%TD*%
D11*
%TO.C,J3*%
X239000000Y-72000000D03*
%TD*%
D12*
%TO.C,D1*%
X193650000Y-73912500D03*
X190350000Y-73912500D03*
%TD*%
D10*
%TO.C,H4*%
X247000000Y-92000000D03*
%TD*%
D13*
%TO.C,R19*%
X204912500Y-76000000D03*
X203087500Y-76000000D03*
%TD*%
%TO.C,R10*%
X185000000Y-94000000D03*
X183175000Y-94000000D03*
%TD*%
D14*
%TO.C,Q5*%
X199000000Y-93000000D03*
D15*
X200270000Y-93000000D03*
X201540000Y-93000000D03*
%TD*%
D16*
%TO.C,C5*%
X221000000Y-80950000D03*
X221000000Y-79050000D03*
%TD*%
D17*
%TO.C,D5*%
X224000000Y-84650000D03*
X224000000Y-81350000D03*
%TD*%
D18*
%TO.C,R7*%
X183000000Y-80037500D03*
X183000000Y-81862500D03*
%TD*%
D19*
%TO.C,Q1*%
X237000000Y-81000000D03*
D20*
X237000000Y-79730000D03*
X237000000Y-78460000D03*
%TD*%
D10*
%TO.C,H1*%
X175000000Y-70000000D03*
%TD*%
D21*
%TO.C,C6*%
X204050000Y-80000000D03*
X205950000Y-80000000D03*
%TD*%
D18*
%TO.C,R24*%
X233000000Y-81087500D03*
X233000000Y-82912500D03*
%TD*%
%TO.C,R17*%
X207000000Y-84087500D03*
X207000000Y-85912500D03*
%TD*%
D22*
%TO.C,R18*%
X221000000Y-86912500D03*
X221000000Y-85087500D03*
%TD*%
D18*
%TO.C,R8*%
X215000000Y-74087500D03*
X215000000Y-75912500D03*
%TD*%
%TO.C,R20*%
X202000000Y-71087500D03*
X202000000Y-72912500D03*
%TD*%
D16*
%TO.C,C7*%
X229000000Y-88950000D03*
X229000000Y-87050000D03*
%TD*%
D23*
%TO.C,SW2*%
X205900000Y-91000000D03*
X214100000Y-91000000D03*
D24*
X208000000Y-91000000D03*
D25*
X210000000Y-91000000D03*
X212000000Y-91000000D03*
%TD*%
D11*
%TO.C,J1*%
X176200000Y-80000000D03*
%TD*%
D21*
%TO.C,C4*%
X215050000Y-79000000D03*
X216950000Y-79000000D03*
%TD*%
%TO.C,C1*%
X227050000Y-75000000D03*
X228950000Y-75000000D03*
%TD*%
D26*
%TO.C,R2*%
X231087500Y-87000000D03*
X232912500Y-87000000D03*
%TD*%
D13*
%TO.C,R4*%
X232912500Y-85000000D03*
X231087500Y-85000000D03*
%TD*%
D22*
%TO.C,R22*%
X200912500Y-84912500D03*
X200912500Y-83087500D03*
%TD*%
D13*
%TO.C,R11*%
X208825000Y-76000000D03*
X207000000Y-76000000D03*
%TD*%
D19*
%TO.C,Q4*%
X216000000Y-83000000D03*
D20*
X216000000Y-84270000D03*
X216000000Y-85540000D03*
%TD*%
D10*
%TO.C,H2*%
X175000000Y-92000000D03*
%TD*%
D22*
%TO.C,R3*%
X185000000Y-73912500D03*
X185000000Y-72087500D03*
%TD*%
D23*
%TO.C,SW1*%
X214100000Y-70702500D03*
X205900000Y-70702500D03*
D24*
X212000000Y-70702500D03*
D25*
X210000000Y-70702500D03*
X208000000Y-70702500D03*
%TD*%
D26*
%TO.C,R9*%
X191087500Y-70912500D03*
X192912500Y-70912500D03*
%TD*%
D11*
%TO.C,J2*%
X239000000Y-90000000D03*
%TD*%
D27*
%TO.C,D6*%
X181000000Y-87000000D03*
D28*
X181000000Y-89540000D03*
%TD*%
D26*
%TO.C,R13*%
X202912500Y-83000000D03*
X204737500Y-83000000D03*
%TD*%
%TO.C,R12*%
X198087500Y-80000000D03*
X199912500Y-80000000D03*
%TD*%
D19*
%TO.C,Q2*%
X220000000Y-75000000D03*
D20*
X220000000Y-73730000D03*
X220000000Y-72460000D03*
%TD*%
D26*
%TO.C,R1*%
X198087500Y-76000000D03*
X199912500Y-76000000D03*
%TD*%
D27*
%TO.C,D8*%
X193000000Y-87000000D03*
D28*
X193000000Y-89540000D03*
%TD*%
D19*
%TO.C,Q3*%
X229000000Y-81000000D03*
D20*
X229000000Y-79730000D03*
X229000000Y-78460000D03*
%TD*%
D26*
%TO.C,R14*%
X227087500Y-84000000D03*
X228912500Y-84000000D03*
%TD*%
D13*
%TO.C,R6*%
X189000000Y-94000000D03*
X187175000Y-94000000D03*
%TD*%
D18*
%TO.C,R15*%
X233000000Y-75087500D03*
X233000000Y-76912500D03*
%TD*%
D26*
%TO.C,R23*%
X191175000Y-94000000D03*
X193000000Y-94000000D03*
%TD*%
D17*
%TO.C,D7*%
X211000000Y-82350000D03*
X211000000Y-85650000D03*
%TD*%
D29*
%TO.C,U1*%
X186190000Y-82475000D03*
X187460000Y-82475000D03*
X188730000Y-82475000D03*
X190000000Y-82475000D03*
X191270000Y-82475000D03*
X192540000Y-82475000D03*
X193810000Y-82475000D03*
X193810000Y-77525000D03*
X192540000Y-77525000D03*
X191270000Y-77525000D03*
X190000000Y-77525000D03*
X188730000Y-77525000D03*
X187460000Y-77525000D03*
X186190000Y-77525000D03*
%TD*%
D17*
%TO.C,D3*%
X224000000Y-75350000D03*
X224000000Y-78650000D03*
%TD*%
%TO.C,D2*%
X211000000Y-76350000D03*
X211000000Y-79650000D03*
%TD*%
D26*
%TO.C,R16*%
X179087500Y-94000000D03*
X180912500Y-94000000D03*
%TD*%
D12*
%TO.C,D9*%
X222350000Y-91000000D03*
X225650000Y-91000000D03*
%TD*%
D27*
%TO.C,D4*%
X187000000Y-87000000D03*
D28*
X187000000Y-89540000D03*
%TD*%
D30*
%TO.C,C3*%
X196950000Y-70912500D03*
X195050000Y-70912500D03*
%TD*%
D18*
%TO.C,R5*%
X188000000Y-72000000D03*
X188000000Y-73825000D03*
%TD*%
D16*
%TO.C,C2*%
X183000000Y-77950000D03*
X183000000Y-76050000D03*
%TD*%
D22*
%TO.C,R21*%
X196912500Y-84912500D03*
X196912500Y-83087500D03*
%TD*%
M02*
