M48
; DRILL file {KiCad (6.99.0-143-g3f711b8958)} date Wed Dec 29 15:34:21 2021
; FORMAT={-:-/ absolute / inch / decimal}
; #@! TF.CreationDate,2021-12-29T15:34:21+01:00
; #@! TF.GenerationSoftware,Kicad,Pcbnew,(6.99.0-143-g3f711b8958)
; #@! TF.FileFunction,Plated,1,2,PTH
FMAT,2
INCH
; #@! TA.AperFunction,Plated,PTH,ComponentDrill
T1C0.0295
; #@! TA.AperFunction,Plated,PTH,ComponentDrill
T2C0.0315
; #@! TA.AperFunction,Plated,PTH,ComponentDrill
T3C0.0354
; #@! TA.AperFunction,Plated,PTH,ComponentDrill
T4C0.0591
; #@! TA.AperFunction,Plated,PTH,ComponentDrill
T5C0.1220
%
G90
G05
T1
X7.8346Y-3.6614
X7.8846Y-3.6614
X7.9346Y-3.6614
X8.5039Y-3.2677
X8.5039Y-3.3177
X8.5039Y-3.3677
X8.6614Y-2.8528
X8.6614Y-2.9028
X8.6614Y-2.9528
X9.0157Y-3.089
X9.0157Y-3.139
X9.0157Y-3.189
X9.3307Y-3.089
X9.3307Y-3.139
X9.3307Y-3.189
T2
X8.189Y-2.7836
X8.189Y-3.5827
X8.2677Y-2.7836
X8.2677Y-3.5827
X8.3465Y-2.7836
X8.3465Y-3.5827
T3
X7.126Y-3.4252
X7.126Y-3.5252
X7.3622Y-3.4252
X7.3622Y-3.5252
X7.5984Y-3.4252
X7.5984Y-3.5252
T4
X8.1063Y-2.7836
X8.1063Y-3.5827
X8.4291Y-2.7836
X8.4291Y-3.5827
T5
X6.937Y-3.1496
X9.4094Y-2.8346
X9.4094Y-3.5433
T0
M30
